# xmcd
#
# Track frame offsets:
#	150
#	16784
#	35842
#	49614
#	62146
#	75456
#	79456
#	106972
#	125184
#	149317
#	165893
#	184986
#	206970
#
# Disc length: 2980 seconds
#
# Revision: 1
# Processed by: cddbd v1.5.2PL0 Copyright (c) Steve Scherf et al.
# Submitted via: audiograbber 1.83.01
#
DISCID=b50ba20d
DTITLE=Sonny Moorman - Live at the Cincy Blues Fest!
DYEAR=2006
DGENRE=Acoustic Blues
TTITLE0=Kind Hearted Woman Blues
TTITLE1=32-20 Blues
TTITLE2=Bad Woman Blues
TTITLE3=Blue Mood
TTITLE4=Cincinnati Shuffle
TTITLE5=Amazing Grace
TTITLE6=As the Crow Flies
TTITLE7=You Got to Move
TTITLE8=Statesboro Blues
TTITLE9=Rollin' and Tumblin'
TTITLE10=Crossroads Blues
TTITLE11=Love in Vain
TTITLE12=Let's Work Together
EXTD=
EXTT0=
EXTT1=
EXTT2=
EXTT3=
EXTT4=
EXTT5=
EXTT6=
EXTT7=
EXTT8=
EXTT9=
EXTT10=
EXTT11=
EXTT12=
PLAYORDER=
